<svg width="242" height="242" viewBox="0 0 242 242" fill="none" xmlns="http://www.w3.org/2000/svg">
<g clip-path="url(#clip0_25_70)">
<mask id="mask0_25_70" style="mask-type:luminance" maskUnits="userSpaceOnUse" x="0" y="0" width="242" height="242">
<path d="M0 0H242V242H0V0Z" fill="white"/>
</mask>
<g mask="url(#mask0_25_70)">
<path fill-rule="evenodd" clip-rule="evenodd" d="M175.601 145.019C172.596 143.516 157.865 136.277 155.122 135.268C152.379 134.26 150.383 133.776 148.376 136.781C146.38 139.775 140.642 146.521 138.898 148.518C137.143 150.524 135.399 150.766 132.404 149.274C129.41 147.761 119.75 144.605 108.305 134.401C99.4015 126.455 93.3818 116.644 91.6373 113.64C89.8929 110.645 91.4458 109.021 92.9482 107.529C94.2993 106.188 95.9429 104.03 97.4453 102.286C98.9478 100.541 99.4418 99.2808 100.44 97.2743C101.448 95.2778 100.944 93.5333 100.188 92.0309C99.4418 90.5285 93.4523 75.7766 90.9517 69.777C88.5216 63.9388 86.0512 64.7353 84.216 64.6345C82.4615 64.5538 80.465 64.5337 78.4685 64.5337C76.472 64.5337 73.2252 65.2798 70.4825 68.2847C67.7298 71.2794 59.9958 78.5293 59.9958 93.2813C59.9958 108.023 70.7245 122.271 72.2269 124.277C73.7293 126.284 93.3515 156.544 123.41 169.521C130.569 172.607 136.145 174.452 140.491 175.823C147.67 178.112 154.204 177.79 159.367 177.013C165.115 176.156 177.094 169.763 179.594 162.765C182.095 155.768 182.085 149.768 181.339 148.518C180.593 147.267 178.596 146.521 175.591 145.019M120.919 219.666H120.879C103.026 219.669 85.5003 214.87 70.1397 205.771L66.5097 203.613L28.7778 213.515L38.8511 176.731L36.4815 172.96C26.4999 157.072 21.2178 138.684 21.2456 119.921C21.2658 64.9672 65.9753 20.2578 120.96 20.2578C134.056 20.218 147.029 22.7817 159.125 27.7999C171.222 32.8182 182.2 40.1909 191.422 49.4893C200.704 58.7286 208.06 69.7174 213.066 81.8193C218.071 93.9212 220.626 106.896 220.583 119.992C220.563 174.946 175.853 219.666 120.919 219.666ZM205.74 35.171C194.63 23.9913 181.412 15.1263 166.853 9.08925C152.293 3.05219 136.681 -0.0370593 120.919 0.000335471C54.8332 0.000335471 1.0285 53.7949 1.00833 119.911C0.975805 140.953 6.49567 161.631 17.0106 179.857L0 242L63.5653 225.322C81.1524 234.895 100.855 239.915 120.879 239.923H120.929C187.016 239.923 240.82 186.129 240.84 120.002C240.89 104.245 237.814 88.6336 231.791 74.0725C225.768 59.5114 216.917 46.2893 205.75 35.171" fill="white"/>
</g>
</g>
<defs>
<clipPath id="clip0_25_70">
<rect width="242" height="242" fill="white"/>
</clipPath>
</defs>
</svg>
